<svg width="1428" height="140" viewBox="0 0 1428 140" fill="none" xmlns="http://www.w3.org/2000/svg">
<g clip-path="url(#clip0_2136_4910)">
<path d="M16.2095 40.0001C16.2095 28.2346 25.2639 18.6911 36.4455 18.671H101.11L109.198 4.50029H33.7382C31.477 4.49065 29.2208 4.72315 27.0044 5.19422C11.2899 8.57663 0.00425611 23.1227 0 40.0002C0.0382018 59.5895 15.1209 75.4598 33.7382 75.5H101.11L109.198 61.2928H36.3067C27.7236 61.2962 20.0722 55.602 17.2162 47.0855C16.4626 44.8072 16.0754 42.4125 16.0707 40.0002L16.2095 40.0001ZM214.472 32.878H137.694V4.50001H121.484V32.878V47.0852V75.4997H137.694V47.0852H214.472V75.4997H230.682V47.0852V32.878V4.50001H214.472V32.878ZM262.649 25.61C262.724 21.7548 265.717 18.6707 269.383 18.6707H347.55L355.638 4.50001H266.676C255.5 4.50001 246.44 14.033 246.44 25.7926V75.4997H347.55L355.638 61.2925H262.649V47.0852H331.341L339.428 32.878H262.649V25.5735V25.61ZM480.593 25.7927C480.593 14.0188 471.512 4.47986 460.323 4.50004H371.396L379.483 18.6708H460.323C464.242 18.3748 467.576 21.6403 467.576 25.7743C467.576 29.9084 464.242 33.1739 460.323 32.878H371.396V75.4997H387.57V47.0852H447.445L463.03 75.4997H480.593L464.731 46.5739C473.994 44.4163 480.59 35.776 480.593 25.7927ZM583.127 4.50001L544.669 35.6172L506.21 4.50001H482.468L535.089 47.0852V75.4997H553.416V47.0852L606.036 4.50001H583.127Z" fill="#0E89FF"/>
</g>
<rect x="670.036" width="5" height="80" fill="#0E89FF"/>
<path d="M1414.67 74.7387H1425.88C1426.96 74.7387 1427.83 73.8466 1427.83 72.7462V6.49648C1427.83 4.76908 1425.82 3.85998 1424.57 5.01866L1414.01 14.7774C1413.19 15.533 1412.72 16.6067 1412.72 17.7331V72.7462C1412.72 73.8466 1413.6 74.7387 1414.67 74.7387ZM1342.48 25.3246L1377.64 73.1397C1378.4 74.1733 1379.61 74.7839 1380.89 74.7839H1395.6C1397.25 74.7839 1398.2 72.9041 1397.22 71.5746L1351.1 9.14218L1351.1 9.1348C1348.92 6.21602 1345.97 4.75662 1342.24 4.75662C1338.9 4.75662 1335.74 6.34546 1333.87 9.10225C1333.86 9.12671 1333.84 9.15023 1333.82 9.17402L1287.75 71.5749C1286.77 72.9045 1287.72 74.7839 1289.37 74.7839H1303.85C1305.13 74.7839 1306.33 74.1776 1307.09 73.15L1342.48 25.3246ZM1255.13 4.50591H1163.85C1162.77 4.50591 1161.74 4.94468 1160.98 5.72264L1150.47 16.5734C1149.23 17.8495 1150.13 19.9931 1151.9 19.9931H1196.11V72.7645C1196.11 73.8768 1197 74.7785 1198.11 74.7785H1209.33C1210.44 74.7785 1211.34 73.8768 1211.34 72.7645V19.9931H1243.35C1244.44 19.9931 1245.49 19.5452 1246.24 18.7531L1256.58 7.91392C1257.8 6.63351 1256.9 4.50591 1255.13 4.50591ZM1037.19 73.9319L1069.82 48.6441L1102.44 73.9319C1103.14 74.4784 1104.01 74.7749 1104.9 74.7749H1120.69C1122.6 74.7749 1123.44 72.3489 1121.92 71.1715L1081.45 39.6404L1121.92 8.10931C1123.44 6.9319 1122.6 4.50591 1120.69 4.50591H1104.9C1104.01 4.50591 1103.14 4.80207 1102.44 5.34792L1069.82 30.6167L1037.19 5.34792C1036.49 4.80207 1035.62 4.50591 1034.73 4.50591H1018.98C1017.07 4.50591 1016.24 6.93695 1017.75 8.11224L1058.42 39.6404L1017.75 71.1685C1016.24 72.3438 1017.07 74.7749 1018.98 74.7749H1034.73C1035.62 74.7749 1036.49 74.4784 1037.19 73.9319ZM739.036 7.13936V73.4758C739.036 74.5937 739.935 75.4999 741.044 75.4999H751.879C752.988 75.4999 753.888 74.5937 753.888 73.4758V20.439L836.471 74.8402C837.124 75.2706 837.888 75.4999 838.669 75.4999H850.315C851.425 75.4999 852.324 74.5937 852.324 73.4758V6.53412C852.324 4.7264 850.151 3.8253 848.889 5.1093L838.636 15.5352C837.89 16.2933 837.472 17.3175 837.472 18.3848V60.156L754.889 5.7746C754.235 5.34436 753.461 5.11524 752.68 5.11524C750.617 5.11524 746.733 5.11523 741.029 5.11522C739.92 5.11521 739.036 6.02145 739.036 7.13936ZM884.552 75.5H974.36C975.336 75.5 976.28 75.1453 977.014 74.5018L989.089 63.9238C990.487 62.6988 989.621 60.3949 987.762 60.3949H897.954C896.978 60.3949 896.034 60.7496 895.3 61.3931L883.225 71.9711C881.827 73.1961 882.693 75.5 884.552 75.5ZM895.3 34.2039L883.225 44.7819C881.827 46.0069 882.693 48.3108 884.552 48.3108H974.36C975.336 48.3108 976.28 47.9561 977.014 47.3126L989.089 36.7346C990.487 35.5096 989.621 33.2057 987.762 33.2057H897.954C896.978 33.2057 896.034 33.5604 895.3 34.2039ZM895.3 7.01473L883.225 17.5927C881.827 18.8177 882.693 21.1216 884.552 21.1216H974.36C975.336 21.1216 976.28 20.7669 977.014 20.1234L989.089 9.54545C990.487 8.3204 989.621 6.01652 987.762 6.01652H897.954C896.978 6.01652 896.034 6.37126 895.3 7.01473Z" fill="#0E89FF"/>
<path d="M1417.39 138.953C1415.05 138.953 1412.92 138.456 1410.98 137.462C1409.05 136.441 1407.54 135.017 1406.47 133.19L1409.33 131.215C1410.22 132.719 1411.35 133.848 1412.72 134.6C1414.09 135.353 1415.66 135.729 1417.43 135.729C1418.72 135.729 1419.89 135.514 1420.94 135.084C1421.99 134.654 1422.81 134.063 1423.4 133.311C1423.99 132.531 1424.28 131.672 1424.28 130.731C1424.28 129.737 1424.01 128.904 1423.48 128.232C1422.97 127.561 1422.16 126.969 1421.06 126.459C1419.98 125.922 1418.52 125.398 1416.67 124.887C1414.65 124.323 1413 123.759 1411.71 123.194C1410.42 122.63 1409.33 121.797 1408.44 120.696C1407.56 119.594 1407.11 118.143 1407.11 116.343C1407.11 114.731 1407.54 113.293 1408.4 112.03C1409.29 110.768 1410.51 109.787 1412.07 109.088C1413.66 108.363 1415.47 108 1417.51 108C1419.8 108 1421.77 108.47 1423.44 109.411C1425.1 110.324 1426.47 111.614 1427.55 113.28L1424.81 115.174C1423.92 113.965 1422.83 113.011 1421.54 112.312C1420.28 111.587 1418.91 111.224 1417.43 111.224C1416.17 111.224 1415.01 111.439 1413.97 111.869C1412.94 112.299 1412.14 112.89 1411.55 113.642C1410.96 114.368 1410.66 115.174 1410.66 116.061C1410.66 117.243 1411 118.21 1411.67 118.963C1412.34 119.688 1413.19 120.252 1414.21 120.655C1415.26 121.058 1416.63 121.488 1418.32 121.945C1420.25 122.455 1421.89 123.033 1423.24 123.678C1424.58 124.296 1425.68 125.169 1426.54 126.298C1427.4 127.426 1427.83 128.864 1427.83 130.61C1427.83 132.303 1427.4 133.781 1426.54 135.044C1425.68 136.28 1424.46 137.247 1422.87 137.945C1421.31 138.617 1419.49 138.953 1417.39 138.953Z" fill="#0E89FF"/>
<path d="M1385.73 138.953C1383.4 138.953 1381.26 138.456 1379.33 137.462C1377.39 136.441 1375.89 135.017 1374.81 133.19L1377.67 131.215C1378.56 132.719 1379.69 133.848 1381.06 134.6C1382.43 135.353 1384 135.729 1385.77 135.729C1387.06 135.729 1388.23 135.514 1389.28 135.084C1390.33 134.654 1391.15 134.063 1391.74 133.311C1392.33 132.531 1392.63 131.672 1392.63 130.731C1392.63 129.737 1392.36 128.904 1391.82 128.232C1391.31 127.561 1390.5 126.969 1389.4 126.459C1388.33 125.922 1386.86 125.398 1385.01 124.887C1382.99 124.323 1381.34 123.759 1380.05 123.194C1378.76 122.63 1377.67 121.797 1376.79 120.696C1375.9 119.594 1375.46 118.143 1375.46 116.343C1375.46 114.731 1375.89 113.293 1376.75 112.03C1377.63 110.768 1378.86 109.787 1380.41 109.088C1382 108.363 1383.81 108 1385.86 108C1388.14 108 1390.11 108.47 1391.78 109.411C1393.45 110.324 1394.82 111.614 1395.89 113.28L1393.15 115.174C1392.26 113.965 1391.18 113.011 1389.89 112.312C1388.62 111.587 1387.25 111.224 1385.77 111.224C1384.51 111.224 1383.36 111.439 1382.31 111.869C1381.29 112.299 1380.48 112.89 1379.89 113.642C1379.3 114.368 1379 115.174 1379 116.061C1379 117.243 1379.34 118.21 1380.01 118.963C1380.68 119.688 1381.53 120.252 1382.55 120.655C1383.6 121.058 1384.97 121.488 1386.66 121.945C1388.6 122.455 1390.24 123.033 1391.58 123.678C1392.92 124.296 1394.02 125.169 1394.88 126.298C1395.74 127.426 1396.17 128.864 1396.17 130.61C1396.17 132.303 1395.74 133.781 1394.88 135.044C1394.02 136.28 1392.8 137.247 1391.22 137.945C1389.66 138.617 1387.83 138.953 1385.73 138.953Z" fill="#0E89FF"/>
<path d="M1348.91 124.686V135.285H1364.43V138.59H1345.44V108.766H1363.9V112.071H1348.91V121.421H1363.06V124.686H1348.91Z" fill="#0E89FF"/>
<path d="M1333.11 133.794C1332.03 135.46 1330.59 136.777 1328.79 137.744C1326.99 138.684 1324.99 139.154 1322.79 139.154C1320.02 139.154 1317.59 138.523 1315.49 137.26C1313.42 135.971 1311.81 134.157 1310.66 131.819C1309.53 129.455 1308.96 126.687 1308.96 123.517C1308.96 120.4 1309.53 117.7 1310.66 115.416C1311.81 113.105 1313.42 111.332 1315.49 110.096C1317.59 108.833 1320.02 108.201 1322.79 108.201C1324.99 108.201 1327.01 108.685 1328.83 109.652C1330.66 110.62 1332.09 111.923 1333.11 113.562L1330.33 115.496C1329.52 114.287 1328.4 113.32 1326.98 112.595C1325.58 111.869 1324.17 111.506 1322.75 111.506C1320.73 111.506 1318.96 111.99 1317.43 112.957C1315.9 113.925 1314.7 115.322 1313.84 117.149C1313.01 118.949 1312.59 121.072 1312.59 123.517C1312.59 125.989 1313.01 128.165 1313.84 130.046C1314.7 131.9 1315.9 133.337 1317.43 134.358C1318.96 135.353 1320.73 135.85 1322.75 135.85C1324.17 135.85 1325.57 135.487 1326.94 134.761C1328.31 134.009 1329.44 133.015 1330.33 131.779L1333.11 133.794Z" fill="#0E89FF"/>
<path d="M1298.3 133.794C1297.23 135.46 1295.79 136.777 1293.99 137.744C1292.19 138.684 1290.19 139.154 1287.98 139.154C1285.22 139.154 1282.78 138.523 1280.69 137.26C1278.62 135.971 1277.01 134.157 1275.85 131.819C1274.72 129.455 1274.16 126.687 1274.16 123.517C1274.16 120.4 1274.72 117.7 1275.85 115.416C1277.01 113.105 1278.62 111.332 1280.69 110.096C1282.78 108.833 1285.22 108.201 1287.98 108.201C1290.19 108.201 1292.2 108.685 1294.03 109.652C1295.86 110.62 1297.28 111.923 1298.3 113.562L1295.52 115.496C1294.71 114.287 1293.6 113.32 1292.17 112.595C1290.78 111.869 1289.37 111.506 1287.94 111.506C1285.93 111.506 1284.15 111.99 1282.62 112.957C1281.09 113.925 1279.9 115.322 1279.04 117.149C1278.2 118.949 1277.79 121.072 1277.79 123.517C1277.79 125.989 1278.2 128.165 1279.04 130.046C1279.9 131.9 1281.09 133.337 1282.62 134.358C1284.15 135.353 1285.93 135.85 1287.94 135.85C1289.37 135.85 1290.76 135.487 1292.13 134.761C1293.5 134.009 1294.63 133.015 1295.52 131.779L1298.3 133.794Z" fill="#0E89FF"/>
<path d="M1250.42 135.85C1252.73 135.85 1254.55 135.097 1255.9 133.593C1257.24 132.061 1257.91 129.979 1257.91 127.346V108.766H1261.42V127.628C1261.42 129.965 1260.97 132.007 1260.09 133.754C1259.2 135.473 1257.92 136.803 1256.26 137.744C1254.59 138.684 1252.65 139.155 1250.42 139.155C1248.19 139.155 1246.24 138.684 1244.57 137.744C1242.93 136.803 1241.67 135.473 1240.78 133.754C1239.9 132.007 1239.45 129.965 1239.45 127.628V108.766H1242.92V127.184C1242.92 129.844 1243.59 131.954 1244.93 133.512C1246.28 135.07 1248.1 135.85 1250.42 135.85Z" fill="#0E89FF"/>
<path d="M1216.78 138.953C1214.45 138.953 1212.31 138.456 1210.37 137.462C1208.44 136.441 1206.94 135.017 1205.86 133.19L1208.72 131.215C1209.61 132.719 1210.74 133.848 1212.11 134.6C1213.48 135.353 1215.05 135.729 1216.82 135.729C1218.11 135.729 1219.28 135.514 1220.33 135.084C1221.38 134.654 1222.2 134.063 1222.79 133.311C1223.38 132.531 1223.67 131.672 1223.67 130.731C1223.67 129.737 1223.41 128.904 1222.87 128.232C1222.36 127.561 1221.55 126.969 1220.45 126.459C1219.38 125.922 1217.91 125.398 1216.06 124.887C1214.04 124.323 1212.39 123.759 1211.1 123.194C1209.81 122.63 1208.72 121.797 1207.84 120.696C1206.95 119.594 1206.51 118.143 1206.51 116.343C1206.51 114.731 1206.94 113.293 1207.8 112.03C1208.68 110.768 1209.9 109.787 1211.46 109.088C1213.05 108.363 1214.86 108 1216.9 108C1219.19 108 1221.16 108.47 1222.83 109.411C1224.49 110.324 1225.86 111.614 1226.94 113.28L1224.2 115.174C1223.31 113.965 1222.22 113.011 1220.93 112.312C1219.67 111.587 1218.3 111.224 1216.82 111.224C1215.56 111.224 1214.41 111.439 1213.36 111.869C1212.34 112.299 1211.53 112.89 1210.94 113.642C1210.35 114.368 1210.05 115.174 1210.05 116.061C1210.05 117.243 1210.39 118.21 1211.06 118.963C1211.73 119.688 1212.58 120.252 1213.6 120.655C1214.65 121.058 1216.02 121.488 1217.71 121.945C1219.64 122.455 1221.28 123.033 1222.63 123.678C1223.97 124.296 1225.07 125.169 1225.93 126.298C1226.79 127.426 1227.22 128.864 1227.22 130.61C1227.22 132.303 1226.79 133.781 1225.93 135.044C1225.07 136.28 1223.85 137.247 1222.26 137.945C1220.71 138.617 1218.88 138.953 1216.78 138.953Z" fill="#0E89FF"/>
<path d="M1166.18 138.953C1163.84 138.953 1161.71 138.456 1159.77 137.462C1157.84 136.441 1156.33 135.017 1155.26 133.19L1158.12 131.215C1159.01 132.719 1160.14 133.848 1161.51 134.6C1162.88 135.353 1164.45 135.729 1166.22 135.729C1167.51 135.729 1168.68 135.514 1169.73 135.084C1170.78 134.654 1171.6 134.063 1172.19 133.311C1172.78 132.531 1173.07 131.672 1173.07 130.731C1173.07 129.737 1172.81 128.904 1172.27 128.232C1171.76 127.561 1170.95 126.969 1169.85 126.459C1168.77 125.922 1167.31 125.398 1165.46 124.887C1163.44 124.323 1161.79 123.759 1160.5 123.194C1159.21 122.63 1158.12 121.797 1157.23 120.696C1156.35 119.594 1155.9 118.143 1155.9 116.343C1155.9 114.731 1156.33 113.293 1157.19 112.03C1158.08 110.768 1159.3 109.787 1160.86 109.088C1162.45 108.363 1164.26 108 1166.3 108C1168.59 108 1170.56 108.47 1172.23 109.411C1173.89 110.324 1175.26 111.614 1176.34 113.28L1173.6 115.174C1172.71 113.965 1171.62 113.011 1170.33 112.312C1169.07 111.587 1167.7 111.224 1166.22 111.224C1164.96 111.224 1163.8 111.439 1162.76 111.869C1161.74 112.299 1160.93 112.89 1160.34 113.642C1159.75 114.368 1159.45 115.174 1159.45 116.061C1159.45 117.243 1159.79 118.21 1160.46 118.963C1161.13 119.688 1161.98 120.252 1163 120.655C1164.05 121.058 1165.42 121.488 1167.11 121.945C1169.04 122.455 1170.68 123.033 1172.03 123.678C1173.37 124.296 1174.47 125.169 1175.33 126.298C1176.19 127.426 1176.62 128.864 1176.62 130.61C1176.62 132.303 1176.19 133.781 1175.33 135.044C1174.47 136.28 1173.25 137.247 1171.66 137.945C1170.1 138.617 1168.28 138.953 1166.18 138.953Z" fill="#0E89FF"/>
<path d="M1134.52 138.953C1132.19 138.953 1130.05 138.456 1128.12 137.462C1126.18 136.441 1124.68 135.017 1123.6 133.19L1126.46 131.215C1127.35 132.719 1128.48 133.848 1129.85 134.6C1131.22 135.353 1132.79 135.729 1134.57 135.729C1135.85 135.729 1137.02 135.514 1138.07 135.084C1139.12 134.654 1139.94 134.063 1140.53 133.311C1141.12 132.531 1141.42 131.672 1141.42 130.731C1141.42 129.737 1141.15 128.904 1140.61 128.232C1140.1 127.561 1139.29 126.969 1138.19 126.459C1137.12 125.922 1135.65 125.398 1133.8 124.887C1131.78 124.323 1130.13 123.759 1128.84 123.194C1127.55 122.63 1126.46 121.797 1125.58 120.696C1124.69 119.594 1124.25 118.143 1124.25 116.343C1124.25 114.731 1124.68 113.293 1125.54 112.03C1126.42 110.768 1127.65 109.787 1129.2 109.088C1130.79 108.363 1132.6 108 1134.65 108C1136.93 108 1138.9 108.47 1140.57 109.411C1142.24 110.324 1143.61 111.614 1144.68 113.28L1141.94 115.174C1141.05 113.965 1139.97 113.011 1138.68 112.312C1137.41 111.587 1136.04 111.224 1134.57 111.224C1133.3 111.224 1132.15 111.439 1131.1 111.869C1130.08 112.299 1129.27 112.89 1128.68 113.642C1128.09 114.368 1127.79 115.174 1127.79 116.061C1127.79 117.243 1128.13 118.21 1128.8 118.963C1129.47 119.688 1130.32 120.252 1131.34 120.655C1132.39 121.058 1133.76 121.488 1135.45 121.945C1137.39 122.455 1139.03 123.033 1140.37 123.678C1141.71 124.296 1142.81 125.169 1143.67 126.298C1144.53 127.426 1144.96 128.864 1144.96 130.61C1144.96 132.303 1144.53 133.781 1143.67 135.044C1142.81 136.28 1141.59 137.247 1140.01 137.945C1138.45 138.617 1136.62 138.953 1134.52 138.953Z" fill="#0E89FF"/>
<path d="M1097.7 124.686V135.285H1113.22V138.59H1094.23V108.766H1112.69V112.071H1097.7V121.421H1111.85V124.686H1097.7Z" fill="#0E89FF"/>
<path d="M1060.85 138.59H1057.38V108.766H1060.93L1076.93 132.303H1077.13V108.766H1080.6V138.59H1077.05L1061.09 115.013H1060.85V138.59Z" fill="#0E89FF"/>
<path d="M1043.75 108.766V138.59H1040.29V108.766H1043.75Z" fill="#0E89FF"/>
<path d="M1017.62 138.953C1015.28 138.953 1013.14 138.456 1011.21 137.462C1009.28 136.441 1007.77 135.017 1006.7 133.19L1009.56 131.215C1010.44 132.719 1011.57 133.848 1012.94 134.6C1014.31 135.353 1015.88 135.729 1017.66 135.729C1018.95 135.729 1020.12 135.514 1021.16 135.084C1022.21 134.654 1023.03 134.063 1023.62 133.311C1024.21 132.531 1024.51 131.672 1024.51 130.731C1024.51 129.737 1024.24 128.904 1023.7 128.232C1023.19 127.561 1022.39 126.969 1021.29 126.459C1020.21 125.922 1018.75 125.398 1016.89 124.887C1014.88 124.323 1013.22 123.759 1011.94 123.194C1010.65 122.63 1009.56 121.797 1008.67 120.696C1007.78 119.594 1007.34 118.143 1007.34 116.343C1007.34 114.731 1007.77 113.293 1008.63 112.03C1009.52 110.768 1010.74 109.787 1012.3 109.088C1013.88 108.363 1015.7 108 1017.74 108C1020.02 108 1022 108.47 1023.66 109.411C1025.33 110.324 1026.7 111.614 1027.77 113.28L1025.03 115.174C1024.15 113.965 1023.06 113.011 1021.77 112.312C1020.51 111.587 1019.14 111.224 1017.66 111.224C1016.4 111.224 1015.24 111.439 1014.19 111.869C1013.17 112.299 1012.37 112.89 1011.77 113.642C1011.18 114.368 1010.89 115.174 1010.89 116.061C1010.89 117.243 1011.22 118.21 1011.89 118.963C1012.57 119.688 1013.41 120.252 1014.43 120.655C1015.48 121.058 1016.85 121.488 1018.55 121.945C1020.48 122.455 1022.12 123.033 1023.46 123.678C1024.81 124.296 1025.91 125.169 1026.77 126.298C1027.63 127.426 1028.06 128.864 1028.06 130.61C1028.06 132.303 1027.63 133.781 1026.77 135.044C1025.91 136.28 1024.68 137.247 1023.1 137.945C1021.54 138.617 1019.71 138.953 1017.62 138.953Z" fill="#0E89FF"/>
<path d="M984 135.85C986.311 135.85 988.138 135.097 989.481 133.593C990.825 132.061 991.497 129.979 991.497 127.346V108.766H995.003V127.628C995.003 129.965 994.56 132.007 993.673 133.754C992.786 135.473 991.51 136.803 989.844 137.744C988.178 138.684 986.23 139.155 984 139.155C981.77 139.155 979.822 138.684 978.156 137.744C976.517 136.803 975.254 135.473 974.368 133.754C973.481 132.007 973.038 129.965 973.038 127.628V108.766H976.504V127.184C976.504 129.844 977.175 131.954 978.519 133.512C979.862 135.07 981.689 135.85 984 135.85Z" fill="#0E89FF"/>
<path d="M954.378 122.59C956.205 123.047 957.643 123.906 958.691 125.169C959.766 126.405 960.303 128.031 960.303 130.046C960.303 132.787 959.389 134.896 957.562 136.374C955.762 137.851 953.263 138.59 950.066 138.59H938.862V108.766H950.026C952.713 108.766 954.849 109.437 956.434 110.781C958.019 112.097 958.812 113.925 958.812 116.262C958.812 117.821 958.409 119.124 957.603 120.172C956.823 121.193 955.749 121.918 954.378 122.348V122.59ZM942.328 112.071V121.3H949.663C951.329 121.3 952.659 120.884 953.653 120.051C954.647 119.191 955.144 117.982 955.144 116.423C955.144 115.026 954.634 113.951 953.613 113.199C952.618 112.447 951.275 112.071 949.582 112.071H942.328ZM949.582 135.285C951.759 135.285 953.478 134.815 954.741 133.875C956.031 132.934 956.676 131.591 956.676 129.844C956.676 128.098 956.044 126.795 954.781 125.935C953.545 125.048 951.839 124.605 949.663 124.605H942.328V135.285H949.582Z" fill="#0E89FF"/>
<path d="M895.845 111.506C893.776 111.506 891.976 111.99 890.444 112.957C888.913 113.925 887.717 115.335 886.857 117.189C886.024 119.016 885.608 121.179 885.608 123.678C885.608 126.231 886.011 128.42 886.817 130.247C887.65 132.075 888.819 133.472 890.323 134.439C891.828 135.379 893.588 135.85 895.603 135.85C897.242 135.85 898.666 135.581 899.875 135.044C901.111 134.506 902.213 133.687 903.18 132.585V125.693H895.925V122.388H906.686V133.794C903.892 137.368 900.198 139.154 895.603 139.154C892.809 139.154 890.39 138.55 888.348 137.341C886.333 136.105 884.775 134.332 883.673 132.021C882.572 129.683 882.021 126.902 882.021 123.678C882.021 120.454 882.572 117.686 883.673 115.375C884.802 113.038 886.4 111.265 888.469 110.055C890.565 108.819 893.024 108.201 895.845 108.201C898.021 108.201 899.996 108.699 901.769 109.693C903.57 110.66 905.021 111.977 906.122 113.642L903.301 115.617C902.387 114.381 901.272 113.387 899.956 112.635C898.639 111.883 897.269 111.506 895.845 111.506Z" fill="#0E89FF"/>
<path d="M849.521 138.59H846.055V108.766H849.602L865.602 132.303H865.804V108.766H869.27V138.59H865.723L849.763 115.013H849.521V138.59Z" fill="#0E89FF"/>
<path d="M832.427 108.766V138.59H828.961V108.766H832.427Z" fill="#0E89FF"/>
<path d="M813.654 138.59L806.037 126.016H799.628V138.59H796.162V108.766H806.44C809.53 108.766 811.961 109.545 813.735 111.103C815.508 112.662 816.395 114.798 816.395 117.512C816.395 119.688 815.804 121.488 814.621 122.912C813.466 124.309 811.827 125.236 809.704 125.693L817.725 138.59H813.654ZM799.628 112.071V122.711H806.158C808.2 122.711 809.812 122.254 810.994 121.34C812.203 120.427 812.808 119.151 812.808 117.512C812.808 115.792 812.217 114.462 811.034 113.522C809.852 112.554 808.227 112.071 806.158 112.071H799.628Z" fill="#0E89FF"/>
<path d="M768.325 124.686V135.285H783.842V138.59H764.859V108.766H783.318V112.071H768.325V121.421H782.472V124.686H768.325Z" fill="#0E89FF"/>
<path d="M724.636 138.59L716.334 108.766H719.881L726.369 132.263H726.611L733.302 108.766H736.929L743.66 132.263H743.861L750.35 108.766H753.897L745.594 138.59H742.289L735.277 114.408H734.954L727.941 138.59H724.636Z" fill="#0E89FF"/>
<path d="M693.34 139.154C690.573 139.154 688.168 138.537 686.126 137.301C684.111 136.065 682.553 134.291 681.451 131.98C680.349 129.643 679.799 126.875 679.799 123.678C679.799 120.481 680.349 117.727 681.451 115.416C682.553 113.078 684.111 111.291 686.126 110.055C688.168 108.819 690.573 108.201 693.34 108.201C696.108 108.201 698.499 108.819 700.515 110.055C702.557 111.291 704.128 113.078 705.23 115.416C706.332 117.727 706.882 120.481 706.882 123.678C706.882 126.875 706.332 129.643 705.23 131.98C704.128 134.291 702.557 136.065 700.515 137.301C698.499 138.537 696.108 139.154 693.34 139.154ZM693.34 135.85C695.356 135.85 697.102 135.366 698.58 134.399C700.085 133.431 701.24 132.034 702.046 130.207C702.879 128.38 703.295 126.204 703.295 123.678C703.295 121.152 702.879 118.976 702.046 117.149C701.24 115.322 700.085 113.925 698.58 112.957C697.102 111.99 695.356 111.506 693.34 111.506C691.325 111.506 689.565 111.99 688.061 112.957C686.556 113.925 685.401 115.322 684.595 117.149C683.789 118.976 683.386 121.152 683.386 123.678C683.386 126.204 683.789 128.38 684.595 130.207C685.401 132.034 686.556 133.431 688.061 134.399C689.565 135.366 691.325 135.85 693.34 135.85Z" fill="#0E89FF"/>
<path d="M658.719 108.766C661.943 108.766 664.442 109.572 666.215 111.184C668.016 112.796 668.916 115.053 668.916 117.955C668.916 120.857 668.056 123.114 666.336 124.726C664.617 126.311 662.185 127.104 659.041 127.104H651.746V138.59H648.28V108.766H658.719ZM658.396 123.839C660.6 123.839 662.306 123.329 663.515 122.308C664.724 121.287 665.329 119.836 665.329 117.955C665.329 116.074 664.724 114.623 663.515 113.602C662.306 112.581 660.6 112.071 658.396 112.071H651.746V123.839H658.396Z" fill="#0E89FF"/>
<path d="M609.108 138.59H605.642V108.766H609.189L620.03 126.54H620.272L631.114 108.766H634.661V138.59H631.194V115.496H630.953L621.159 131.497H619.144L609.35 115.496H609.108V138.59Z" fill="#0E89FF"/>
<path d="M577.805 124.686V135.285H593.322V138.59H574.339V108.766H592.798V112.071H577.805V121.421H591.952V124.686H577.805Z" fill="#0E89FF"/>
<path d="M527.558 124.686V135.285H543.075V138.59H524.092V108.766H542.551V112.071H527.558V121.421H541.705V124.686H527.558Z" fill="#0E89FF"/>
<path d="M511.754 133.794C510.68 135.46 509.242 136.777 507.442 137.744C505.642 138.684 503.64 139.154 501.437 139.154C498.669 139.154 496.237 138.523 494.142 137.26C492.073 135.971 490.461 134.157 489.305 131.819C488.177 129.455 487.613 126.687 487.613 123.517C487.613 120.4 488.177 117.7 489.305 115.416C490.461 113.105 492.073 111.332 494.142 110.096C496.237 108.833 498.669 108.201 501.437 108.201C503.64 108.201 505.655 108.685 507.482 109.652C509.309 110.62 510.733 111.923 511.754 113.562L508.973 115.496C508.167 114.287 507.052 113.32 505.628 112.595C504.231 111.869 502.82 111.506 501.396 111.506C499.381 111.506 497.608 111.99 496.076 112.957C494.545 113.925 493.349 115.322 492.489 117.149C491.656 118.949 491.24 121.072 491.24 123.517C491.24 125.989 491.656 128.165 492.489 130.046C493.349 131.9 494.545 133.337 496.076 134.358C497.608 135.353 499.381 135.85 501.396 135.85C502.82 135.85 504.218 135.487 505.588 134.761C506.958 134.009 508.087 133.015 508.973 131.779L511.754 133.794Z" fill="#0E89FF"/>
<path d="M455.113 138.59H451.647V108.766H455.194L471.194 132.303H471.396V108.766H474.862V138.59H471.315L455.355 115.013H455.113V138.59Z" fill="#0E89FF"/>
<path d="M423.81 124.686V135.285H439.327V138.59H420.344V108.766H438.803V112.071H423.81V121.421H437.957V124.686H423.81Z" fill="#0E89FF"/>
<path d="M396.272 111.506C394.203 111.506 392.403 111.99 390.871 112.957C389.34 113.925 388.144 115.335 387.284 117.189C386.451 119.016 386.035 121.179 386.035 123.678C386.035 126.231 386.438 128.42 387.244 130.247C388.077 132.075 389.246 133.472 390.75 134.439C392.255 135.379 394.015 135.85 396.03 135.85C397.669 135.85 399.093 135.581 400.302 135.044C401.538 134.506 402.64 133.687 403.607 132.585V125.693H396.352V122.388H407.113V133.794C404.319 137.368 400.625 139.154 396.03 139.154C393.236 139.154 390.817 138.55 388.775 137.341C386.76 136.105 385.202 134.332 384.1 132.021C382.999 129.683 382.448 126.902 382.448 123.678C382.448 120.454 382.999 117.686 384.1 115.375C385.229 113.038 386.827 111.265 388.896 110.055C390.992 108.819 393.451 108.201 396.272 108.201C398.448 108.201 400.423 108.699 402.196 109.693C403.997 110.66 405.448 111.977 406.549 113.642L403.728 115.617C402.814 114.381 401.699 113.387 400.383 112.635C399.066 111.883 397.696 111.506 396.272 111.506Z" fill="#0E89FF"/>
<path d="M369.706 108.766V138.59H366.24V108.766H369.706Z" fill="#0E89FF"/>
<path d="M339.663 108.766V135.285H354.898V138.59H336.197V108.766H339.663Z" fill="#0E89FF"/>
<path d="M308.36 124.686V135.285H323.877V138.59H304.894V108.766H323.353V112.071H308.36V121.421H322.506V124.686H308.36Z" fill="#0E89FF"/>
<path d="M284.076 138.59H280.57V112.071H271.058V108.766H293.548V112.071H284.076V138.59Z" fill="#0E89FF"/>
<path d="M239.929 138.59H236.463V108.766H240.01L256.01 132.303H256.212V108.766H259.678V138.59H256.131L240.171 115.013H239.929V138.59Z" fill="#0E89FF"/>
<path d="M222.835 108.766V138.59H219.369V108.766H222.835Z" fill="#0E89FF"/>
<path d="M173.847 108.766V135.285H189.082V138.59H170.381V108.766H173.847Z" fill="#0E89FF"/>
<path d="M159.418 138.59H155.71L151.922 128.232H141.12L137.332 138.59H133.624L144.707 108.766H148.335L159.418 138.59ZM146.4 113.844L142.329 124.927H150.712L146.642 113.844H146.4Z" fill="#0E89FF"/>
<path d="M119.245 138.59H115.739V112.071H106.227V108.766H128.716V112.071H119.245V138.59Z" fill="#0E89FF"/>
<path d="M94.8557 108.766V138.59H91.3896V108.766H94.8557Z" fill="#0E89FF"/>
<path d="M67.3172 111.506C65.2483 111.506 63.4481 111.99 61.9166 112.957C60.385 113.925 59.1894 115.335 58.3296 117.189C57.4966 119.016 57.0802 121.179 57.0802 123.678C57.0802 126.231 57.4832 128.42 58.2893 130.247C59.1222 132.075 60.291 133.472 61.7957 134.439C63.3003 135.379 65.0602 135.85 67.0754 135.85C68.7144 135.85 70.1385 135.581 71.3476 135.044C72.5835 134.506 73.6852 133.687 74.6524 132.585V125.693H67.3978V122.388H78.1588V133.794C75.3645 137.368 71.67 139.154 67.0754 139.154C64.281 139.154 61.8628 138.55 59.8208 137.341C57.8056 136.105 56.2472 134.332 55.1456 132.021C54.044 129.683 53.4932 126.902 53.4932 123.678C53.4932 120.454 54.044 117.686 55.1456 115.375C56.2741 113.038 57.8728 111.265 59.9417 110.055C62.0375 108.819 64.496 108.201 67.3172 108.201C69.4936 108.201 71.4685 108.699 73.2418 109.693C75.0421 110.66 76.493 111.977 77.5946 113.642L74.7734 115.617C73.8598 114.381 72.7448 113.387 71.4282 112.635C70.1116 111.883 68.7413 111.506 67.3172 111.506Z" fill="#0E89FF"/>
<path d="M40.7517 108.766V138.59H37.2856V108.766H40.7517Z" fill="#0E89FF"/>
<path d="M0 138.59V108.766H10.8416C13.7166 108.766 16.1751 109.384 18.2171 110.62C20.286 111.829 21.8579 113.548 22.9326 115.779C24.0074 118.009 24.5448 120.642 24.5448 123.678C24.5448 126.714 23.9805 129.347 22.852 131.577C21.7235 133.808 20.0711 135.541 17.8947 136.777C15.7452 137.986 13.1658 138.59 10.1565 138.59H0ZM10.1565 135.285C13.6225 135.285 16.2826 134.278 18.1365 132.263C19.9905 130.247 20.9175 127.386 20.9175 123.678C20.9175 119.97 20.0174 117.109 18.2171 115.093C16.4169 113.078 13.8375 112.071 10.4789 112.071H3.46609V135.285H10.1565Z" fill="#0E89FF"/>
<defs>
<clipPath id="clip0_2136_4910">
<rect width="606.036" height="71" fill="white" transform="translate(0 4.5)"/>
</clipPath>
</defs>
</svg>
